HIERARCHY
ROOT Hips
{
	OFFSET 0.000000 0.000000 0.000000
	CHANNELS 6 Xposition Yposition Zposition Zrotation Yrotation Xrotation 
	JOINT Spine1
	{
		OFFSET -0.013727 5.003763 -0.053727
		CHANNELS 3 Zrotation Yrotation Xrotation
		JOINT Spine2
		{
			OFFSET -0.000000 7.125302 -0.029825
			CHANNELS 3 Zrotation Yrotation Xrotation
			JOINT Chest
			{
				OFFSET -0.000001 7.550064 -0.815971
				CHANNELS 3 Zrotation Yrotation Xrotation
				JOINT Neck1
				{
					OFFSET -0.181677 26.311296 -0.553348
					CHANNELS 3 Zrotation Yrotation Xrotation
					JOINT Neck2
					{
						OFFSET -0.000003 7.709397 2.302586
						CHANNELS 3 Zrotation Yrotation Xrotation
						JOINT Head
						{
							OFFSET -0.000005 6.128913 1.953709
							CHANNELS 3 Zrotation Yrotation Xrotation
							JOINT HeadEnd
							{
								OFFSET 0.003598 16.065401 -1.835379
								CHANNELS 3 Zrotation Yrotation Xrotation
								End Site
								{
									OFFSET 0.000000 0.000000 0.000000
								}
							}
							JOINT Jaw
							{
								OFFSET 0.002637 0.475592 3.094941
								CHANNELS 3 Zrotation Yrotation Xrotation
								End Site
								{
									OFFSET 0.000000 0.000000 0.000000
								}
							}
							JOINT LeftEye
							{
								OFFSET 3.206381 5.380207 7.586883
								CHANNELS 3 Zrotation Yrotation Xrotation
								End Site
								{
									OFFSET 0.000000 0.000000 0.000000
								}
							}
							JOINT RightEye
							{
								OFFSET -3.222440 5.361866 7.558233
								CHANNELS 3 Zrotation Yrotation Xrotation
								End Site
								{
									OFFSET 0.000000 0.000000 0.000000
								}
							}
						}
					}
				}
				JOINT LeftShoulder
				{
					OFFSET 1.621652 23.237164 5.113413
					CHANNELS 3 Zrotation Yrotation Xrotation
					JOINT LeftArm
					{
						OFFSET 14.919845 0.000001 -5.502326
						CHANNELS 3 Zrotation Yrotation Xrotation
						JOINT LeftForeArm
						{
							OFFSET 28.739309 0.000003 -0.002588
							CHANNELS 3 Zrotation Yrotation Xrotation
							JOINT LeftHand
							{
								OFFSET 27.093979 -0.000003 0.002610
								CHANNELS 3 Zrotation Yrotation Xrotation
								JOINT LeftHandThumb1
								{
									OFFSET 2.276480 -1.392045 3.191413
									CHANNELS 3 Zrotation Yrotation Xrotation
									JOINT LeftHandThumb2
									{
										OFFSET 4.012841 -1.828126 1.641655
										CHANNELS 3 Zrotation Yrotation Xrotation
										JOINT LeftHandThumb3
										{
											OFFSET 2.798516 0.000001 -0.000004
											CHANNELS 3 Zrotation Yrotation Xrotation
											JOINT LeftHandThumbEnd
											{
												OFFSET 3.180791 -0.000002 0.000003
												CHANNELS 3 Zrotation Yrotation Xrotation
												End Site
												{
													OFFSET 0.000000 0.000000 0.000000
												}
											}
										}
									}
								}
								JOINT LeftHandIndex1
								{
									OFFSET 3.247553 -0.531998 2.296169
									CHANNELS 3 Zrotation Yrotation Xrotation
									JOINT LeftHandIndex2
									{
										OFFSET 6.364579 0.012062 0.178600
										CHANNELS 3 Zrotation Yrotation Xrotation
										JOINT LeftHandIndex3
										{
											OFFSET 3.662366 0.000000 -0.000000
											CHANNELS 3 Zrotation Yrotation Xrotation
											JOINT LeftHandIndex4
											{
												OFFSET 2.329242 0.000003 0.000004
												CHANNELS 3 Zrotation Yrotation Xrotation
												JOINT LeftHandIndexEnd
												{
													OFFSET 2.759619 -0.180541 -0.113024
													CHANNELS 3 Zrotation Yrotation Xrotation
													End Site
													{
														OFFSET 0.000000 0.000000 0.000000
													}
												}
											}
										}
									}
								}
								JOINT LeftHandMiddle1
								{
									OFFSET 3.163498 0.240981 1.000332
									CHANNELS 3 Zrotation Yrotation Xrotation
									JOINT LeftHandMiddle2
									{
										OFFSET 6.190777 -0.259276 -1.002548
										CHANNELS 3 Zrotation Yrotation Xrotation
										JOINT LeftHandMiddle3
										{
											OFFSET 4.356523 -0.000006 0.000000
											CHANNELS 3 Zrotation Yrotation Xrotation
											JOINT LeftHandMiddle4
											{
												OFFSET 2.996875 -0.000008 0.000000
												CHANNELS 3 Zrotation Yrotation Xrotation
												JOINT LeftHandMiddleEnd
												{
													OFFSET 2.304294 -0.294572 -0.031740
													CHANNELS 3 Zrotation Yrotation Xrotation
													End Site
													{
														OFFSET 0.000000 0.000000 0.000000
													}
												}
											}
										}
									}
								}
								JOINT LeftHandRing1
								{
									OFFSET 2.882642 -0.053650 -0.322543
									CHANNELS 3 Zrotation Yrotation Xrotation
									JOINT LeftHandRing2
									{
										OFFSET 5.854543 -0.486204 -1.373841
										CHANNELS 3 Zrotation Yrotation Xrotation
										JOINT LeftHandRing3
										{
											OFFSET 4.350580 -0.000000 0.000003
											CHANNELS 3 Zrotation Yrotation Xrotation
											JOINT LeftHandRing4
											{
												OFFSET 2.651324 0.000007 0.000004
												CHANNELS 3 Zrotation Yrotation Xrotation
												JOINT LeftHandRingEnd
												{
													OFFSET 1.936111 0.077685 -0.000070
													CHANNELS 3 Zrotation Yrotation Xrotation
													End Site
													{
														OFFSET 0.000000 0.000000 0.000000
													}
												}
											}
										}
									}
								}
								JOINT LeftHandPinky1
								{
									OFFSET 2.865499 -0.310004 -1.600378
									CHANNELS 3 Zrotation Yrotation Xrotation
									JOINT LeftHandPinky2
									{
										OFFSET 5.087853 -1.331142 -1.771231
										CHANNELS 3 Zrotation Yrotation Xrotation
										JOINT LeftHandPinky3
										{
											OFFSET 3.070974 0.000003 0.000001
											CHANNELS 3 Zrotation Yrotation Xrotation
											JOINT LeftHandPinky4
											{
												OFFSET 1.549668 0.000001 0.000000
												CHANNELS 3 Zrotation Yrotation Xrotation
												JOINT LeftHandPinkyEnd
												{
													OFFSET 1.944894 -0.157802 0.057219
													CHANNELS 3 Zrotation Yrotation Xrotation
													End Site
													{
														OFFSET 0.000000 0.000000 0.000000
													}
												}
											}
										}
									}
								}
							}
						}
					}
				}
				JOINT RightShoulder
				{
					OFFSET -1.380118 23.180307 5.214158
					CHANNELS 3 Zrotation Yrotation Xrotation
					JOINT RightArm
					{
						OFFSET -15.037197 0.000011 -5.545604
						CHANNELS 3 Zrotation Yrotation Xrotation
						JOINT RightForeArm
						{
							OFFSET -28.736639 0.000004 -0.002597
							CHANNELS 3 Zrotation Yrotation Xrotation
							JOINT RightHand
							{
								OFFSET -27.133617 -0.000001 0.002612
								CHANNELS 3 Zrotation Yrotation Xrotation
								JOINT RightHandThumb1
								{
									OFFSET -2.274036 -1.383990 3.163128
									CHANNELS 3 Zrotation Yrotation Xrotation
									JOINT RightHandThumb2
									{
										OFFSET -4.011429 -1.827468 1.640915
										CHANNELS 3 Zrotation Yrotation Xrotation
										JOINT RightHandThumb3
										{
											OFFSET -2.794934 -0.000002 -0.000003
											CHANNELS 3 Zrotation Yrotation Xrotation
											JOINT RightHandThumbEnd
											{
												OFFSET -3.183855 0.000003 -0.000001
												CHANNELS 3 Zrotation Yrotation Xrotation
												End Site
												{
													OFFSET 0.000000 0.000000 0.000000
												}
											}
										}
									}
								}
								JOINT RightHandIndex1
								{
									OFFSET -3.253269 -0.520059 2.282866
									CHANNELS 3 Zrotation Yrotation Xrotation
									JOINT RightHandIndex2
									{
										OFFSET -6.341918 0.012473 0.178265
										CHANNELS 3 Zrotation Yrotation Xrotation
										JOINT RightHandIndex3
										{
											OFFSET -3.654875 -0.000009 -0.000001
											CHANNELS 3 Zrotation Yrotation Xrotation
											JOINT RightHandIndex4
											{
												OFFSET -2.327587 0.000001 0.000000
												CHANNELS 3 Zrotation Yrotation Xrotation
												JOINT RightHandIndexEnd
												{
													OFFSET -2.761789 -0.180657 -0.113079
													CHANNELS 3 Zrotation Yrotation Xrotation
													End Site
													{
														OFFSET 0.000000 0.000000 0.000000
													}
												}
											}
										}
									}
								}
								JOINT RightHandMiddle1
								{
									OFFSET -3.168107 0.246594 1.001031
									CHANNELS 3 Zrotation Yrotation Xrotation
									JOINT RightHandMiddle2
									{
										OFFSET -6.180830 -0.258836 -1.000896
										CHANNELS 3 Zrotation Yrotation Xrotation
										JOINT RightHandMiddle3
										{
											OFFSET -4.348904 -0.000001 -0.000000
											CHANNELS 3 Zrotation Yrotation Xrotation
											JOINT RightHandMiddle4
											{
												OFFSET -3.000244 -0.000002 -0.000003
												CHANNELS 3 Zrotation Yrotation Xrotation
												JOINT RightHandMiddleEnd
												{
													OFFSET -2.302518 -0.294372 -0.031706
													CHANNELS 3 Zrotation Yrotation Xrotation
													End Site
													{
														OFFSET 0.000000 0.000000 0.000000
													}
												}
											}
										}
									}
								}
								JOINT RightHandRing1
								{
									OFFSET -2.885694 -0.067953 -0.308858
									CHANNELS 3 Zrotation Yrotation Xrotation
									JOINT RightHandRing2
									{
										OFFSET -5.854197 -0.486132 -1.373732
										CHANNELS 3 Zrotation Yrotation Xrotation
										JOINT RightHandRing3
										{
											OFFSET -4.338814 -0.000004 -0.000000
											CHANNELS 3 Zrotation Yrotation Xrotation
											JOINT RightHandRing4
											{
												OFFSET -2.654905 -0.000005 0.000003
												CHANNELS 3 Zrotation Yrotation Xrotation
												JOINT RightHandRingEnd
												{
													OFFSET -1.933570 0.077524 -0.000052
													CHANNELS 3 Zrotation Yrotation Xrotation
													End Site
													{
														OFFSET 0.000000 0.000000 0.000000
													}
												}
											}
										}
									}
								}
								JOINT RightHandPinky1
								{
									OFFSET -2.866429 -0.342798 -1.584145
									CHANNELS 3 Zrotation Yrotation Xrotation
									JOINT RightHandPinky2
									{
										OFFSET -5.091370 -1.332054 -1.772385
										CHANNELS 3 Zrotation Yrotation Xrotation
										JOINT RightHandPinky3
										{
											OFFSET -3.062667 -0.000007 0.000001
											CHANNELS 3 Zrotation Yrotation Xrotation
											JOINT RightHandPinky4
											{
												OFFSET -1.546526 0.000006 -0.000003
												CHANNELS 3 Zrotation Yrotation Xrotation
												JOINT RightHandPinkyEnd
												{
													OFFSET -1.945122 -0.157721 0.057211
													CHANNELS 3 Zrotation Yrotation Xrotation
													End Site
													{
														OFFSET 0.000000 0.000000 0.000000
													}
												}
											}
										}
									}
								}
							}
						}
					}
				}
			}
		}
	}
	JOINT LeftLeg
	{
		OFFSET 10.043214 -8.434526 2.595655
		CHANNELS 3 Zrotation Yrotation Xrotation
		JOINT LeftShin
		{
			OFFSET -0.000002 -43.221752 -0.802913
			CHANNELS 3 Zrotation Yrotation Xrotation
			JOINT LeftFoot
			{
				OFFSET 0.000001 -42.155094 -3.481523
				CHANNELS 3 Zrotation Yrotation Xrotation
				JOINT LeftToeBase
				{
					OFFSET 0.000000 -5.059475 13.231529
					CHANNELS 3 Zrotation Yrotation Xrotation
					JOINT LeftToeEnd
					{
						OFFSET -0.009607 -1.647615 6.513017
						CHANNELS 3 Zrotation Yrotation Xrotation
						End Site
						{
							OFFSET 0.000000 0.000000 0.000000
						}
					}
				}
			}
		}
	}
	JOINT RightLeg
	{
		OFFSET -10.047277 -8.295259 2.620317
		CHANNELS 3 Zrotation Yrotation Xrotation
		JOINT RightShin
		{
			OFFSET 0.000001 -43.362209 -0.805556
			CHANNELS 3 Zrotation Yrotation Xrotation
			JOINT RightFoot
			{
				OFFSET 0.000002 -42.117393 -3.478398
				CHANNELS 3 Zrotation Yrotation Xrotation
				JOINT RightToeBase
				{
					OFFSET -0.000001 -5.079609 13.284196
					CHANNELS 3 Zrotation Yrotation Xrotation
					JOINT RightToeEnd
					{
						OFFSET 0.009533 -1.634383 6.460591
						CHANNELS 3 Zrotation Yrotation Xrotation
						End Site
						{
							OFFSET 0.000000 0.000000 0.000000
						}
					}
				}
			}
		}
	}
}
MOTION
Frames: 4
Frame Time: 0.033333
5.304374 94.564262 5.709900 -4.869783 -2.122467 -2.746242 3.935283 0.354109 2.189036 0.224012 0.046943 -4.356546 2.844688 -2.144898 14.667492 -6.469705 6.386549 12.595634 3.126811 14.318487 -3.128880 -5.734394 16.382101 -11.816005 0.000076 -0.000020 0.000006 -0.009186 0.080754 0.011629 0.718539 -3.656641 -10.750186 -0.739538 3.807687 -10.870188 -2.974215 -13.961764 9.980332 -36.204552 -18.726164 -42.363113 177.393829 -49.377178 -177.906052 13.286154 -14.801245 -23.155390 -5.882102 9.861280 0.702589 -10.936857 -0.360576 7.156198 0.000001 8.774816 -0.000002 -16.609320 17.577526 6.127948 -1.844029 2.498502 -2.507276 -10.163591 4.678939 4.621104 -20.975994 -0.000003 0.000004 -21.226255 2.451694 -3.593992 -0.000001 -0.000006 0.000001 -1.362679 2.240797 -0.746323 -21.334892 0.584908 3.008322 -13.821197 -0.000002 0.000003 -23.887131 -0.249077 -0.839480 -60.005230 2.694759 -1.123327 -0.294025 1.679685 0.833255 -14.218189 0.093215 1.300580 -34.212002 -0.287563 0.967171 -20.033182 0.964536 1.212843 0.000000 0.000000 0.000000 -3.440384 0.788232 0.501655 -15.928167 -3.167306 2.999704 -6.338818 -0.000001 0.000002 -18.123415 3.648176 -4.905662 -0.000005 -0.000000 -0.000002 3.669048 17.342216 10.786790 63.171848 58.078907 20.178076 179.745575 63.649040 179.785645 -6.377580 -2.051289 -7.447897 2.243540 -5.255033 -3.180156 14.282877 -0.826595 6.952496 -0.000004 -12.690590 -0.000000 15.892385 -18.098038 2.930977 1.665665 -1.955918 -2.878298 4.727794 -4.170583 4.993918 11.020512 0.000005 -0.000000 12.109030 -3.735709 -2.866780 0.000001 0.000001 -0.000001 1.291985 -1.928548 -1.498091 14.800109 0.567470 3.865603 14.242553 -1.341735 -6.660651 19.631941 0.143925 -0.648243 49.995110 -0.865939 -5.676536 0.353030 -1.511149 -0.031939 20.222769 3.684306 2.316627 18.787245 0.000006 0.000000 10.751610 -0.479869 1.397906 -0.000001 -0.000000 -0.000001 3.273804 0.305946 -0.580110 21.486792 11.830364 2.266132 8.162916 0.000002 0.000000 18.399050 -3.798979 -4.940566 0.000003 0.000000 -0.000003 10.931792 44.840908 -25.308149 -0.213007 -0.198812 39.850094 -2.450450 1.552730 -8.239944 1.677204 -1.831883 0.143313 -0.000000 -0.000001 0.000002 -10.312500 -23.760757 -1.226249 0.234691 0.574768 26.712332 12.903361 7.384077 -16.129957 -1.432232 1.003245 -1.051216 -0.000000 0.000001 -0.000001 
5.764378 94.285004 6.249420 -5.158400 0.236877 -2.474738 4.099792 0.492413 2.140413 0.262741 0.153505 -4.357737 3.148640 -2.050066 14.528255 -6.348668 6.170410 11.947104 2.952369 13.988147 -3.207177 -6.233103 15.971788 -12.469415 0.000077 -0.000023 0.000006 -0.003704 0.100100 0.026876 0.709466 -3.624129 -10.736986 -0.723323 3.839924 -10.862160 -3.463391 -13.268653 10.296947 -38.967434 -17.323055 -40.660381 177.519516 -48.670124 -177.968277 13.398135 -14.755402 -20.927164 -5.882101 9.861279 0.702590 -10.936857 -0.360576 7.156196 0.000001 8.774816 -0.000001 -16.662825 17.538120 6.083620 -1.844031 2.498502 -2.507275 -10.163589 4.678941 4.621105 -20.975994 -0.000004 0.000003 -21.226246 2.451693 -3.593993 0.000000 -0.000006 0.000000 -1.362680 2.240797 -0.746323 -21.334892 0.584909 3.008320 -13.821195 -0.000002 0.000002 -23.887129 -0.249077 -0.839482 -60.197350 2.708891 -1.192629 -0.294023 1.679686 0.833255 -14.218192 0.093215 1.300580 -34.211998 -0.287563 0.967170 -20.033176 0.964535 1.212842 0.000000 0.000000 0.000000 -3.440385 0.788232 0.501655 -15.928165 -3.167307 2.999703 -6.338820 -0.000001 0.000002 -18.123411 3.648176 -4.905662 -0.000004 -0.000000 -0.000001 3.615786 17.527472 10.808973 63.823032 56.444336 20.909571 179.302216 63.482204 179.412918 -6.623744 -2.443549 -6.604050 2.243540 -5.255033 -3.180153 14.282875 -0.826594 6.952494 -0.000004 -12.690588 0.000000 15.821021 -18.051493 2.978365 1.665665 -1.955920 -2.878297 4.727794 -4.170583 4.993916 11.020512 0.000005 -0.000000 12.109033 -3.735709 -2.866778 -0.000000 0.000001 -0.000000 1.291987 -1.928549 -1.498090 14.800111 0.567468 3.865603 14.242553 -1.341734 -6.660649 19.631939 0.143927 -0.648244 49.942265 -0.872039 -5.637844 0.353028 -1.511148 -0.031940 20.222765 3.684307 2.316628 18.787245 0.000005 -0.000000 10.751610 -0.479867 1.397903 -0.000000 0.000000 0.000000 3.273804 0.305948 -0.580110 21.486790 11.830360 2.266129 8.162916 0.000001 -0.000002 18.399048 -3.798976 -4.940568 0.000003 0.000002 -0.000002 9.896572 45.201275 -27.182667 -0.195891 -0.155054 41.468555 -1.751462 2.011033 -9.114612 1.682998 -1.879380 -0.047934 -0.000000 0.000001 0.000002 -10.389183 -24.312141 -0.514054 0.233726 0.566425 26.612099 13.627331 6.064270 -16.862322 -1.437482 1.005907 -0.877101 -0.000000 0.000001 -0.000001 
6.241499 93.916161 7.005966 -5.409270 3.932850 -2.273149 4.215373 0.654350 1.906589 0.299664 0.330337 -4.425539 3.522712 -1.932211 14.332576 -5.983528 5.756029 11.124365 2.731359 13.407226 -3.289829 -6.635258 15.051583 -13.068319 0.000077 -0.000023 0.000006 0.002561 0.147864 0.037513 0.703469 -3.570453 -10.718003 -0.696838 3.853359 -10.833252 -4.134247 -12.261536 10.582361 -42.638897 -15.509419 -37.250584 177.911972 -48.523613 -178.245010 13.348428 -14.256691 -17.977203 -5.882101 9.861278 0.702588 -10.936860 -0.360574 7.156196 0.000001 8.774813 -0.000002 -16.825850 17.740269 6.029510 -1.844032 2.498505 -2.507276 -10.163589 4.678939 4.621102 -20.975992 -0.000002 -0.000000 -21.226250 2.451691 -3.593996 0.000000 -0.000005 -0.000000 -1.362680 2.240797 -0.746322 -21.334888 0.584909 3.008318 -13.821195 -0.000003 0.000001 -23.887133 -0.249079 -0.839484 -60.628609 2.748777 -1.309146 -0.294024 1.679687 0.833256 -14.218194 0.093217 1.300578 -34.212002 -0.287563 0.967166 -20.033176 0.964532 1.212840 0.000000 -0.000000 0.000001 -3.440385 0.788232 0.501655 -15.928164 -3.167307 2.999702 -6.338816 0.000000 0.000001 -18.123411 3.648174 -4.905663 -0.000003 0.000001 -0.000001 3.806459 17.664284 11.020787 64.121429 54.273163 21.174520 178.245636 63.059444 178.451065 -7.277740 -2.919506 -5.482129 2.243541 -5.255031 -3.180154 14.282873 -0.826592 6.952496 -0.000002 -12.690591 -0.000002 15.752321 -17.966274 3.013088 1.665666 -1.955920 -2.878296 4.727793 -4.170584 4.993918 11.020512 0.000002 -0.000002 12.109031 -3.735707 -2.866781 -0.000000 -0.000000 0.000000 1.291985 -1.928548 -1.498087 14.800114 0.567470 3.865604 14.242554 -1.341732 -6.660648 19.631941 0.143928 -0.648242 49.968601 -0.847067 -5.579931 0.353030 -1.511151 -0.031941 20.222769 3.684309 2.316628 18.787245 0.000006 0.000001 10.751611 -0.479868 1.397905 0.000000 0.000000 0.000000 3.273802 0.305946 -0.580111 21.486790 11.830360 2.266131 8.162917 0.000001 0.000000 18.399054 -3.798979 -4.940566 0.000003 -0.000001 -0.000002 8.422947 45.573719 -29.460514 -0.131867 -0.018996 43.300682 -0.924150 2.527788 -10.164743 1.689163 -1.877586 -0.264731 0.000000 0.000000 0.000002 -10.495524 -24.939802 0.812470 0.230696 0.546393 26.348362 14.497882 4.034623 -18.095608 -1.443021 0.971897 -0.718409 -0.000000 0.000001 -0.000001 
6.847057 93.425652 8.172936 -5.535351 9.195446 -2.179384 4.219369 0.707857 1.401492 0.322609 0.560382 -4.564722 3.856284 -1.754826 14.036206 -5.316324 5.181508 10.385268 2.462384 12.390860 -3.428469 -6.835974 13.696918 -13.487152 0.000077 -0.000020 0.000006 0.015916 0.148385 0.037241 0.697783 -3.554602 -10.693326 -0.662497 3.824581 -10.780340 -4.903097 -10.989485 10.851981 -46.788322 -13.187053 -31.955229 178.399521 -49.564976 -178.584991 12.863722 -13.268708 -14.162318 -5.882102 9.861273 0.702590 -10.936861 -0.360575 7.156199 -0.000002 8.774812 -0.000001 -17.059639 18.254045 5.928718 -1.844030 2.498502 -2.507276 -10.163589 4.678940 4.621106 -20.975998 -0.000001 0.000004 -21.226255 2.451694 -3.593992 -0.000000 -0.000005 -0.000001 -1.362681 2.240797 -0.746324 -21.334888 0.584910 3.008319 -13.821194 -0.000003 0.000002 -23.887131 -0.249075 -0.839480 -61.164368 2.856373 -1.487449 -0.294024 1.679685 0.833255 -14.218195 0.093216 1.300580 -34.212006 -0.287562 0.967170 -20.033180 0.964535 1.212840 0.000000 0.000002 0.000001 -3.440385 0.788232 0.501655 -15.928167 -3.167302 2.999703 -6.338817 -0.000002 0.000001 -18.123413 3.648176 -4.905661 -0.000003 -0.000000 -0.000001 4.104525 17.636988 11.367372 64.187561 51.402298 20.823860 176.809265 62.428719 177.250061 -8.122031 -3.261429 -4.170048 2.243540 -5.255030 -3.180157 14.282875 -0.826594 6.952495 -0.000004 -12.690585 0.000001 15.743219 -17.914965 3.018908 1.665664 -1.955919 -2.878296 4.727794 -4.170583 4.993920 11.020508 0.000003 -0.000002 12.109031 -3.735708 -2.866780 -0.000000 -0.000000 0.000002 1.291986 -1.928548 -1.498090 14.800109 0.567465 3.865602 14.242553 -1.341736 -6.660649 19.631935 0.143926 -0.648244 50.188755 -0.865966 -5.589930 0.353027 -1.511146 -0.031939 20.222767 3.684304 2.316627 18.787245 0.000003 -0.000000 10.751610 -0.479869 1.397903 0.000001 -0.000001 0.000001 3.273804 0.305948 -0.580110 21.486788 11.830359 2.266127 8.162916 0.000001 -0.000002 18.399052 -3.798978 -4.940569 0.000003 -0.000001 -0.000003 6.567208 45.491463 -31.741558 -0.074961 0.181867 45.187546 -0.217555 2.756779 -11.841671 1.705367 -1.846967 -0.492704 0.000000 0.000002 0.000002 -10.678478 -25.459028 3.113933 0.210399 0.512960 25.596710 15.707376 0.795906 -19.924761 -1.449097 0.890883 -0.568246 -0.000000 -0.000000 -0.000001 
